<svg xmlns="http://www.w3.org/2000/svg" viewBox="0 0 293.5 118.15"><defs><style>.cls-1{fill:none;}.cls-2{fill:#fff;}.cls-3{fill:#00ffc5;}</style></defs><title>Asset 5</title><g id="Layer_2" data-name="Layer 2"><g id="Layer_1-2" data-name="Layer 1"><path class="cls-1" d="M32.35,17.55a9,9,0,0,0-5.24-1.34H18.88V27.26H27a8.7,8.7,0,0,0,5.33-1.45,4.78,4.78,0,0,0,1.93-4v-.17A4.6,4.6,0,0,0,32.35,17.55Z"/><path class="cls-1" d="M209.11,19.64q-3.84-2.79-10.37-2.78H195.6V40.41h3.14q6.54,0,10.37-2.79t3.83-8.91v-.16C212.94,24.46,211.66,21.5,209.11,19.64Z"/><polygon class="cls-1" points="133.43 44.95 144.82 44.96 133.43 30.81 133.43 44.95"/><path class="cls-2" d="M50.1,30.89a17.91,17.91,0,0,0,3-10.48v-.17a20.56,20.56,0,0,0-1.29-7.58,17.55,17.55,0,0,0-3.87-5.81,20.9,20.9,0,0,0-7.87-4.71A37.66,37.66,0,0,0,27.59.4H0V56.86H18.88V40.73h4L33.55,56.86H55.09L41.94,37.66A20.67,20.67,0,0,0,50.1,30.89ZM34.28,21.78a4.78,4.78,0,0,1-1.93,4A8.7,8.7,0,0,1,27,27.26H18.88v-11h8.23a9,9,0,0,1,5.24,1.34,4.6,4.6,0,0,1,1.93,4.06Z"/><polygon class="cls-2" points="133.43 30.81 144.82 44.96 171.19 44.97 171.19 0.4 152.47 0.4 152.47 25.32 132.4 0.4 114.73 0.4 114.73 44.95 133.43 44.95 133.43 30.81"/><path class="cls-2" d="M232,28.31v-.16a29.77,29.77,0,0,0-2.11-11.41A22.83,22.83,0,0,0,223.59,8a29.35,29.35,0,0,0-10.53-5.6,49.43,49.43,0,0,0-14.72-2H176.73V45H200.1l-3.18,11.89h.77a48.19,48.19,0,0,0,15-2.09,30.08,30.08,0,0,0,10.72-5.9,23.82,23.82,0,0,0,6.46-9A30.34,30.34,0,0,0,232,28.31Zm-19,.4q0,6.13-3.83,8.91t-10.37,2.79H195.6V16.86h3.14q6.54,0,10.37,2.78c2.55,1.86,3.83,4.82,3.83,8.91Z"/><polygon class="cls-2" points="269.7 0 269.56 0 250.99 0 250.84 0 227.05 56.86 247.54 56.86 260.27 24.06 273 56.86 293.5 56.86 269.7 0"/><polygon class="cls-2" points="109.19 44.95 109.19 41.38 79.19 41.38 79.19 35.25 106.77 35.25 106.77 21.61 79.19 21.61 79.19 15.89 108.78 15.89 108.78 0.4 60.63 0.4 60.63 56.86 97.76 56.86 100.94 44.95 109.19 44.95"/><polygon class="cls-1" points="145.15 73.19 133.43 73.19 133.43 87.74 145.15 73.19"/><path class="cls-1" d="M209.11,80.93q-3.84-2.79-10.37-2.78H195.6V101.7h3.14q6.54,0,10.37-2.79T212.94,90v-.16C212.94,85.75,211.66,82.79,209.11,80.93Z"/><path class="cls-1" d="M22.74,92.74a4.79,4.79,0,0,0-1.93,4v.17A4.63,4.63,0,0,0,22.74,101,9.1,9.1,0,0,0,28,102.34h8.23v-11H28.07A8.7,8.7,0,0,0,22.74,92.74Z"/><path class="cls-3" d="M36.21,77.82h-4L21.54,61.69H0l13.15,19.2A20.65,20.65,0,0,0,5,87.66,17.87,17.87,0,0,0,2,98.15v.16a20.57,20.57,0,0,0,1.28,7.58,17.45,17.45,0,0,0,3.87,5.81A20.78,20.78,0,0,0,15,116.41a37.66,37.66,0,0,0,12.46,1.74H55.09V61.69H36.21Zm0,24.52H28A9.1,9.1,0,0,1,22.74,101a4.63,4.63,0,0,1-1.93-4.07v-.17a4.79,4.79,0,0,1,1.93-4,8.7,8.7,0,0,1,5.33-1.45h8.14Z"/><polygon class="cls-3" points="96.47 61.69 60.63 61.69 60.63 118.15 109.19 118.15 109.19 102.67 79.19 102.67 79.19 96.54 106.77 96.54 106.77 82.91 79.19 82.91 79.19 77.18 108.78 77.18 108.78 73.18 93.4 73.18 96.47 61.69"/><polygon class="cls-3" points="133.43 87.74 133.43 73.19 114.73 73.19 114.73 118.15 132.4 118.15 152.47 93.23 152.47 118.15 171.19 118.15 171.19 73.2 145.15 73.19 133.43 87.74"/><path class="cls-3" d="M232,89.6v-.16A29.77,29.77,0,0,0,229.87,78a22.91,22.91,0,0,0-6.28-8.76,29.35,29.35,0,0,0-10.53-5.6,49.43,49.43,0,0,0-14.72-2h-2.71l-3.08,11.52H176.73v45h21a48.19,48.19,0,0,0,15-2.09,30.22,30.22,0,0,0,10.72-5.89,23.93,23.93,0,0,0,6.46-9A30.34,30.34,0,0,0,232,89.6Zm-19,.4q0,6.14-3.83,8.91t-10.37,2.79H195.6V78.15h3.14q6.54,0,10.37,2.78c2.55,1.86,3.83,4.82,3.83,8.91Z"/><polygon class="cls-3" points="269.7 61.29 269.56 61.29 250.99 61.29 250.84 61.29 227.05 118.15 247.54 118.15 260.27 85.35 273 118.15 293.5 118.15 269.7 61.29"/><path class="cls-2" d="M101.19,65l1.57-1.22a7.18,7.18,0,0,0,6,2.85c2.64,0,4.62-1.44,4.62-3.43,0-1.41-.94-2.24-3.76-3.34-3.37-1.33-5-2.51-5-4.89a4.61,4.61,0,0,1,1.41-3.35,7.45,7.45,0,0,1,5.33-2,8.4,8.4,0,0,1,6.49,2.78l-1.52,1.35a6.66,6.66,0,0,0-5.15-2.27c-2.74,0-4.39,1.54-4.39,3.22,0,1.48,1.18,2.24,4,3.37,3.14,1.2,4.73,2.48,4.73,4.83a5,5,0,0,1-1.49,3.53,7.58,7.58,0,0,1-5.43,2A8.8,8.8,0,0,1,101.19,65Z"/><path class="cls-2" d="M137.34,57.52A11.46,11.46,0,0,1,134,65.44a10.42,10.42,0,0,1-7.34,3.11,7.75,7.75,0,0,1-8-7.95A11.34,11.34,0,0,1,122,52.71a10.33,10.33,0,0,1,7.32-3.11A7.75,7.75,0,0,1,137.34,57.52Zm-4.94,6.72a9.54,9.54,0,0,0,2.77-6.64,5.77,5.77,0,0,0-6-6.09,7.77,7.77,0,0,0-5.59,2.4,9.47,9.47,0,0,0-2.77,6.64,5.77,5.77,0,0,0,6,6.09A7.85,7.85,0,0,0,132.4,64.24Z"/><path class="cls-2" d="M143.28,49.92h6.85c3.58,0,5.67,1.67,5.67,4.26s-2,4.28-4.57,4.81c1.8.54,3.24,1.72,3.24,3.79,0,3.16-2.87,5.43-7.68,5.43h-8.42ZM147,66.35c3.3,0,5.36-1.38,5.36-3.65,0-1.86-1.75-2.8-4.21-2.8h-5.54l-1.72,6.45Zm1.31-8.28c3.27,0,5.36-1.44,5.36-3.63,0-1.73-1.36-2.67-3.74-2.67h-5.12l-1.7,6.3Z"/><path class="cls-2" d="M165.25,61.1h-4.94l-1.91,7.11h-2.06l4.91-18.29h6.58A7.12,7.12,0,0,1,173,51.59a4.43,4.43,0,0,1,1.21,3.16,5.54,5.54,0,0,1-1.63,4,9.36,9.36,0,0,1-5.06,2.2l3.76,7.29h-2.38Zm.52-1.85a7.27,7.27,0,0,0,5.2-1.68,3.66,3.66,0,0,0,1.1-2.66,2.76,2.76,0,0,0-.76-2,4.9,4.9,0,0,0-3.58-1.1h-4.91l-2,7.43Z"/><path class="cls-2" d="M179.21,49.92H192.3l-.52,1.88h-11L179.08,58h9.85l-.52,1.89h-9.82l-1.73,6.4H188l-.5,1.88H174.3Z"/></g></g></svg>